<svg xmlns="http://www.w3.org/2000/svg" xmlns:xlink="http://www.w3.org/1999/xlink" viewBox="0 0 1125.47 213.71">
    <defs>
        <style>.cls-1{fill:url(#linear-gradient);}</style>
        <linearGradient id="linear-gradient" x1="788.09" y1="304.7" x2="369.29" y2="-128.98"
                        gradientUnits="userSpaceOnUse">
            <stop offset="0" stop-color="#f47695"/>
            <stop offset="1" stop-color="#f98584"/>
        </linearGradient>
    </defs>
    <g id="Layer_2" data-name="Layer 2">
        <g id="Layer_1-2" data-name="Layer 1">
            <g id="Text">
                <path class="cls-1"
                      d="M285.43,15.84Q267.67,0,233.93,0q-40,0-63.05,29L199,48.25q13.91-16.87,34-16.87,13.61,0,22.79,7.54A23.7,23.7,0,0,1,265,58v4.44a113.29,113.29,0,0,0-15.1-4.59q-9.18-2.22-23.38-2.22A78.2,78.2,0,0,0,203,59.05,56.09,56.09,0,0,0,184.2,69a46.06,46.06,0,0,0-12.43,15.54,45.33,45.33,0,0,0-4.44,20.27,48.33,48.33,0,0,0,4.14,20.13A45.54,45.54,0,0,0,183,140.6a54.89,54.89,0,0,0,17.31,10.21,60,60,0,0,0,21.17,3.7q15.09,0,24.71-5.92a65.28,65.28,0,0,0,16.43-14.21H265v15.4h38.18v-87Q303.19,31.67,285.43,15.84Zm-22.94,87.61a32.53,32.53,0,0,1-7.1,10.66,35.65,35.65,0,0,1-25.31,10.21A27.48,27.48,0,0,1,213.36,119a16.76,16.76,0,0,1-7.26-14.21q0-8.88,7.55-14.94t21.46-6.07A61.84,61.84,0,0,1,251,85.69,81,81,0,0,1,265,90.87,32.48,32.48,0,0,1,262.49,103.45Zm206-66.89a88.13,88.13,0,0,1,3.41,25.3v87.92H433.13V66.6q0-15.69-6.95-23.24T405.9,35.82a28.23,28.23,0,0,0-14.06,3.4,32.76,32.76,0,0,0-10.36,9.18A41.53,41.53,0,0,0,375,62a61.2,61.2,0,0,0-2.22,16.73v71H334V4.74h36.41V23.68h2.37A49.2,49.2,0,0,1,391.1,6.36,53.67,53.67,0,0,1,417.44,0a60.45,60.45,0,0,1,24,4.44,44,44,0,0,1,17,12.58A55.58,55.58,0,0,1,468.5,36.56Zm159.25-14.8a73.28,73.28,0,0,0-24.27-16,85.81,85.81,0,0,0-61.87,0,73.28,73.28,0,0,0-24.27,16,72.7,72.7,0,0,0-16,24.42,81.76,81.76,0,0,0-5.77,31.08,81.83,81.83,0,0,0,5.77,31.08,71.69,71.69,0,0,0,40.25,40.4,85.81,85.81,0,0,0,61.87,0,73.41,73.41,0,0,0,24.27-16,72.75,72.75,0,0,0,16-24.42,81.84,81.84,0,0,0,5.78-31.08,81.76,81.76,0,0,0-5.78-31.08A72.55,72.55,0,0,0,627.75,21.76Zm-20.13,73a38.54,38.54,0,0,1-8.43,13,36.5,36.5,0,0,1-12.29,8.14,38.33,38.33,0,0,1-28.86,0,36.75,36.75,0,0,1-12.13-8.14,38.41,38.41,0,0,1-8.44-13,46.33,46.33,0,0,1-3.11-17.46,46.39,46.39,0,0,1,3.11-17.47,38.41,38.41,0,0,1,8.44-13A37.06,37.06,0,0,1,558,38.63a38.45,38.45,0,0,1,28.86,0,36.8,36.8,0,0,1,12.29,8.14,38.54,38.54,0,0,1,8.43,13,46.39,46.39,0,0,1,3.11,17.47A46.33,46.33,0,0,1,607.62,94.72Zm196-73a70.77,70.77,0,0,0-22.2-16A62.78,62.78,0,0,0,754.88,0q-16.57,0-27.82,6.51T710.48,22.2h-2.37V4.74h-36.4v209h38.77V153l-2.37-20.72h2.37q5.32,9.18,16.58,15.69t27.82,6.51a62.78,62.78,0,0,0,26.49-5.77,70.9,70.9,0,0,0,22.2-16,76,76,0,0,0,15.25-24.42,84,84,0,0,0,5.62-31.08,83.89,83.89,0,0,0-5.62-31.08A75.82,75.82,0,0,0,803.57,21.76ZM782.41,94.42a40.38,40.38,0,0,1-8.58,13,38.64,38.64,0,0,1-12.29,8.29,37.1,37.1,0,0,1-14.65,3,38.59,38.59,0,0,1-14.65-2.82A36.5,36.5,0,0,1,720,107.74a40.44,40.44,0,0,1-8.58-13,44.44,44.44,0,0,1-3.26-17.46,44.49,44.49,0,0,1,3.26-17.47,40.44,40.44,0,0,1,8.58-13,36.8,36.8,0,0,1,12.29-8.14,38.59,38.59,0,0,1,14.65-2.81,37.1,37.1,0,0,1,14.65,3,38.61,38.61,0,0,1,12.29,8.28,40.59,40.59,0,0,1,8.58,13,43.65,43.65,0,0,1,3.25,17.17A43.63,43.63,0,0,1,782.41,94.42ZM959.12,15.84Q941.36,0,907.62,0q-40,0-63,29l28.12,19.24q13.9-16.87,34-16.87,13.6,0,22.79,7.54A23.73,23.73,0,0,1,938.7,58v4.44a113.76,113.76,0,0,0-15.1-4.59q-9.18-2.22-23.38-2.22a78.26,78.26,0,0,0-23.54,3.4A56.14,56.14,0,0,0,857.89,69a46.06,46.06,0,0,0-12.43,15.54A45.33,45.33,0,0,0,841,104.78a48.17,48.17,0,0,0,4.14,20.13A45.64,45.64,0,0,0,856.7,140.6,54.94,54.94,0,0,0,874,150.81a59.94,59.94,0,0,0,21.16,3.7q15.11,0,24.72-5.92a65.28,65.28,0,0,0,16.43-14.21h2.37v15.4h38.18v-87Q976.88,31.67,959.12,15.84Zm-22.94,87.61a32.69,32.69,0,0,1-7.1,10.66,35.65,35.65,0,0,1-25.31,10.21A27.53,27.53,0,0,1,887,119a16.78,16.78,0,0,1-7.25-14.21q0-8.88,7.55-14.94t21.46-6.07a61.84,61.84,0,0,1,15.84,1.92,81.3,81.3,0,0,1,14.06,5.18A32.66,32.66,0,0,1,936.18,103.45Zm189.29,3.41a38.76,38.76,0,0,1-4.44,18,48.27,48.27,0,0,1-12.58,15.25,61.56,61.56,0,0,1-19.54,10.5,78.56,78.56,0,0,1-25.3,3.85A82.93,82.93,0,0,1,1038.3,151a70,70,0,0,1-19.24-9.32,60.79,60.79,0,0,1-13.76-13.32,63.71,63.71,0,0,1-8.59-15.25l34.63-14.8q5,11.25,13.47,16.73a33.81,33.81,0,0,0,18.8,5.47q10.65,0,16.87-3.85t6.22-9.17a11.34,11.34,0,0,0-5.18-9.62q-5.19-3.7-17.91-6.66l-20.43-4.44A71.24,71.24,0,0,1,1029.12,82,55,55,0,0,1,1016,73.7a42,42,0,0,1-9.77-12.13A34.35,34.35,0,0,1,1002.33,45a38.43,38.43,0,0,1,4.59-18.94A42.93,42.93,0,0,1,1019.5,12a60.12,60.12,0,0,1,18.8-8.88A83.8,83.8,0,0,1,1061.54,0q20.71,0,37,8.14t24,25.9l-33.45,13.62a25.66,25.66,0,0,0-12.13-12.44,36.65,36.65,0,0,0-16-3.84,29.71,29.71,0,0,0-14.5,3.4q-6.21,3.4-6.22,8.73,0,5,5.18,8a59.85,59.85,0,0,0,14.06,5.33l22.2,5.33q22.2,5.32,33,17A39.44,39.44,0,0,1,1125.47,106.86ZM113.7,92.32l37.69,8.81a80.91,80.91,0,0,1-20.71,34.28Q116,150,91,154.49a80.53,80.53,0,0,1-31.47-.17,72,72,0,0,1-26.76-11.54A74.86,74.86,0,0,1,12.66,121.6,80.74,80.74,0,0,1,1.47,92.19a81.67,81.67,0,0,1,.14-31.61A71.65,71.65,0,0,1,34,13.65,80.69,80.69,0,0,1,63.43,2.45Q88.18-2,107.13,6.27A68.29,68.29,0,0,1,137.22,31.2L104.91,52.09q-6.75-9-15.39-12.7T69.23,37.8a36.14,36.14,0,0,0-13.75,5.5A37.27,37.27,0,0,0,45.17,53.59a37.77,37.77,0,0,0-5.69,14.27,47.54,47.54,0,0,0,.14,17.42,47.46,47.46,0,0,0,6,16.36A37.87,37.87,0,0,0,55.93,113a37.22,37.22,0,0,0,13.27,6,35.94,35.94,0,0,0,14.8.32q11.94-2.16,19.27-9A38.3,38.3,0,0,0,113.7,92.32ZM76.79,66.61a12.51,12.51,0,1,1-12,12.5A12.25,12.25,0,0,1,76.79,66.61Z"/>
            </g>
        </g>
    </g>
</svg>