<svg width="2400" height="2407" viewBox="0 0 2400 2407" fill="none" xmlns="http://www.w3.org/2000/svg">
<path d="M0 171.917C0 171.917 248.333 229.39 685 94.4542C1121.67 -40.4813 1343.33 -22.1551 1742.5 94.4537C2141.67 211.063 2400 171.917 2400 171.917V2406.67H0V171.917Z" fill="#3D3D3D"/>
<mask id="mask0_10258_2741" style="mask-type:alpha" maskUnits="userSpaceOnUse" x="0" y="0" width="2400" height="2407">
<path d="M0 171.917C0 171.917 248.333 229.39 685 94.4542C1121.67 -40.4813 1343.33 -22.1551 1742.5 94.4537C2141.67 211.063 2400 171.917 2400 171.917V2406.67H0V171.917Z" fill="#3D3D3D"/>
</mask>
<g mask="url(#mask0_10258_2741)">
<rect opacity="0.3" width="253.333" height="256.667" rx="10" transform="matrix(0.898794 0.438371 -0.425364 0.905022 109.961 230.004)" fill="#F2709C" fill-opacity="0.2"/>
<rect opacity="0.3" width="211.667" height="188.333" rx="15" transform="matrix(0.987688 0.156434 -0.151006 0.988533 -40.0391 1715)" fill="#FF9472" fill-opacity="0.2"/>
<rect opacity="0.3" width="150" height="150" rx="10" transform="matrix(0.669131 0.743145 -0.730788 0.682605 2111.64 1603.34)" fill="#F2709C" fill-opacity="0.2"/>
<rect opacity="0.3" width="165" height="165" rx="15" transform="matrix(-0.669131 -0.743145 -0.730788 0.682605 1998.3 643.336)" fill="#6CCAFF" fill-opacity="0.2"/>
<rect opacity="0.3" width="128.333" height="128.333" rx="50" transform="matrix(0.669131 0.743145 -0.730788 0.682605 379.961 958.336)" fill="#B66CFF" fill-opacity="0.2"/>
<rect opacity="0.3" width="128.333" height="128.333" rx="50" transform="matrix(0.669131 0.743145 -0.730788 0.682605 1859.97 2311.67)" fill="#B66CFF" fill-opacity="0.2"/>
<rect opacity="0.3" width="156.667" height="158.333" rx="10" transform="matrix(0.891007 0.453991 -0.440801 0.897605 938.312 2176.67)" fill="#B66CFF" fill-opacity="0.2"/>
</g>
</svg>
