<svg width="1200" height="1204" viewBox="0 0 1200 1204" fill="none" xmlns="http://www.w3.org/2000/svg">
<path d="M0 85.9583C0 85.9583 124.167 114.695 342.5 47.2271C560.833 -20.2406 671.667 -11.0776 871.25 47.2269C1070.83 105.531 1200 85.9583 1200 85.9583V1203.33H0V85.9583Z" fill="#3D3D3D"/>
<mask id="mask0_10258_2741" style="mask-type:alpha" maskUnits="userSpaceOnUse" x="0" y="0" width="1200" height="1204">
<path d="M0 85.9583C0 85.9583 124.167 114.695 342.5 47.2271C560.833 -20.2406 671.667 -11.0776 871.25 47.2269C1070.83 105.531 1200 85.9583 1200 85.9583V1203.33H0V85.9583Z" fill="#3D3D3D"/>
</mask>
<g mask="url(#mask0_10258_2741)">
<rect opacity="0.3" width="126.667" height="128.333" rx="10" transform="matrix(0.898794 0.438371 -0.425364 0.905022 54.9805 115.002)" fill="#F2709C" fill-opacity="0.2"/>
<rect opacity="0.3" width="105.833" height="94.1667" rx="15" transform="matrix(0.987688 0.156434 -0.151006 0.988533 -20.0195 857.502)" fill="#FF9472" fill-opacity="0.2"/>
<rect opacity="0.3" width="75" height="75" rx="10" transform="matrix(0.669131 0.743145 -0.730788 0.682605 1055.82 801.668)" fill="#F2709C" fill-opacity="0.2"/>
<rect opacity="0.3" width="82.5" height="82.5" rx="15" transform="matrix(-0.669131 -0.743145 -0.730788 0.682605 999.148 321.668)" fill="#6CCAFF" fill-opacity="0.2"/>
<rect opacity="0.3" width="64.1667" height="64.1667" rx="32.0833" transform="matrix(0.669131 0.743145 -0.730788 0.682605 189.98 479.168)" fill="#B66CFF" fill-opacity="0.2"/>
<rect opacity="0.3" width="64.1667" height="64.1667" rx="32.0833" transform="matrix(0.669131 0.743145 -0.730788 0.682605 929.984 1155.83)" fill="#B66CFF" fill-opacity="0.2"/>
<rect opacity="0.3" width="78.3333" height="79.1667" rx="10" transform="matrix(0.891007 0.453991 -0.440801 0.897605 469.156 1088.33)" fill="#B66CFF" fill-opacity="0.2"/>
</g>
</svg>
